<svg width="92" height="29" viewBox="0 0 92 29" fill="none" xmlns="http://www.w3.org/2000/svg">
<path d="M0.0519962 23.196C0.0519962 26.902 2.704 28.874 5.798 28.874C8.586 28.874 10.592 27.208 11.476 26.222V27.14C11.476 28.568 11.884 28.874 13.414 28.874C14.774 28.874 16.78 28.568 17.562 28.364V26.46H15.726V16.056C15.726 11.126 14.06 9.188 8.858 9.188C5.016 9.188 1.616 11.092 0.833996 11.772L1.888 13.948C2.976 13.438 5.05 12.418 7.634 12.418C10.558 12.418 11.204 13.54 11.204 16.158V16.94C5.05 16.974 0.0519962 18.878 0.0519962 23.196ZM7.974 26.052C6.274 26.052 5.118 24.93 5.118 22.72C5.118 20.68 6.92 19.014 11.204 19.014V24.59C10.32 25.372 8.96 26.052 7.974 26.052ZM23.5878 26.154L21.6158 26.46V28.5H30.4898V26.46L28.4498 26.154V13.778C29.4018 13.064 30.9998 12.112 32.5978 12.112C34.9438 12.112 35.4878 13.438 35.4878 16.804V26.188L33.6518 26.46V28.5H42.4238V26.46L40.3498 26.188V16.804C40.3498 11.364 39.0238 9.222 34.9098 9.222C32.1218 9.222 29.4018 10.65 27.9738 11.976L28.0078 11.16V9.834L27.1578 9.154H27.0558L21.4118 9.868V12.214L23.5878 12.826V26.154ZM52.5384 28.806C54.9864 28.806 57.7404 27.82 58.8964 26.936L58.2504 25.032C57.5364 25.338 56.1764 25.678 54.9524 25.678C53.3884 25.678 53.2184 25.406 53.2184 21.768V12.214H58.3864V9.596H53.1844L53.0484 4.598H50.3284C50.0564 5.55 49.5804 7.284 49.2064 8.134C48.9344 8.882 48.6284 9.358 48.2204 9.664C47.7104 9.902 46.7924 10.208 46.1464 10.446V12.214H48.3564V24.692C48.3564 27.616 49.7504 28.806 52.5384 28.806ZM66.7513 6.502H66.7853C68.7913 6.502 69.8793 5.278 69.8793 3.51C69.8793 2.15 69.0293 0.959998 67.0913 0.959998C65.2213 0.959998 64.0993 2.252 64.0993 3.952C64.0993 5.38 65.0513 6.502 66.7513 6.502ZM64.9493 26.154L62.5693 26.46V28.5H72.0553V26.46L69.7773 26.188V9.834L68.8253 9.154H68.7573L62.5353 9.902V12.18L64.9493 12.826V26.154ZM76.0504 19.218C76.0504 24.726 78.7704 28.874 84.7884 28.874C87.8824 28.874 90.4664 27.31 91.4184 26.29L90.6364 24.522C89.5824 25.202 87.9844 25.916 85.8764 25.916C83.0884 25.916 81.1504 23.332 81.1504 18.198C81.1844 13.268 82.8164 11.33 85.2304 11.33C86.1484 11.33 87.0664 11.534 87.2364 12.214L88.0864 15.954H91.0444L91.2484 10.14C90.1944 9.936 88.5284 9.12 85.7064 9.12C79.7224 9.12 76.0164 13.302 76.0504 19.218Z" fill="#A06056"/>
</svg>
